ISO-10303-21;
HEADER;
FILE_DESCRIPTION(('Povorotnik model export'),'2;1');
FILE_NAME('model.step','2026-07-08T22:47:56',(''),(''),'opencode','Povorotnik','');
FILE_SCHEMA(('AUTOMOTIVE_DESIGN'));
ENDSEC;
DATA;
#1 = APPLICATION_CONTEXT('');
#2 = PRODUCT_CONTEXT('',#1,'mechanical');
#3 = PRODUCT('PovorotnikModel','Exported boxes','',(#2));
#4 = PRODUCT_DEFINITION_FORMATION('','',#3);
#5 = PRODUCT_DEFINITION_CONTEXT('',#2,'design');
#6 = PRODUCT_DEFINITION('','',#4,#5);
#7 = PRODUCT_DEFINITION_SHAPE('','',#6);
#8 = ( LENGTH_UNIT ( ) NAMED_UNIT ( * ) SI_UNIT ( .MILLI. , .METRE. ) );
#9 = DIRECTION('',(0.0,0.0,1.0));
#10 = DIRECTION('',(1.0,0.0,0.0));
#11 = DIRECTION('',(0.0,1.0,0.0));
#12 = CARTESIAN_POINT('',(0.,0.,0.));
#13 = AXIS2_PLACEMENT_3D('',#12,#9,#10);
#14 = UNCERTAINTY_MEASURE_WITH_UNIT(LENGTH_MEASURE(1.E-07),#8,'','');
#15 = GLOBAL_UNCERTAINTY_ASSIGNED_CONTEXT((#14));
#16 = GEOMETRIC_REPRESENTATION_CONTEXT(3,#13);
#17 = CARTESIAN_POINT('',(0.0,0.0,0.0));
#18 = CARTESIAN_POINT('',(0.59,0.0,0.0));
#19 = CARTESIAN_POINT('',(0.59,0.52,0.0));
#20 = CARTESIAN_POINT('',(0.0,0.52,0.0));
#21 = CARTESIAN_POINT('',(0.0,0.0,0.1));
#22 = CARTESIAN_POINT('',(0.59,0.0,0.1));
#23 = CARTESIAN_POINT('',(0.59,0.52,0.1));
#24 = CARTESIAN_POINT('',(0.0,0.52,0.1));
#25 = VERTEX_POINT('',#17);
#26 = VERTEX_POINT('',#18);
#27 = VERTEX_POINT('',#19);
#28 = VERTEX_POINT('',#20);
#29 = VERTEX_POINT('',#21);
#30 = VERTEX_POINT('',#22);
#31 = VERTEX_POINT('',#23);
#32 = VERTEX_POINT('',#24);
#33 = AXIS2_PLACEMENT_3D('',#17,#10,#9);
#34 = LINE('',#33,#9);
#35 = EDGE_CURVE('',#25,#26,#34,.T.);
#36 = DIRECTION('',(0.0,0.0,-1.0));
#37 = AXIS2_PLACEMENT_3D('',#18,#11,#36);
#38 = LINE('',#37,#9);
#39 = EDGE_CURVE('',#26,#27,#38,.T.);
#40 = DIRECTION('',(-1.0,0.0,0.0));
#41 = AXIS2_PLACEMENT_3D('',#19,#40,#36);
#42 = LINE('',#41,#9);
#43 = EDGE_CURVE('',#27,#28,#42,.T.);
#44 = DIRECTION('',(0.0,-1.0,0.0));
#45 = AXIS2_PLACEMENT_3D('',#20,#44,#9);
#46 = LINE('',#45,#9);
#47 = EDGE_CURVE('',#28,#25,#46,.T.);
#48 = AXIS2_PLACEMENT_3D('',#21,#10,#9);
#49 = LINE('',#48,#9);
#50 = EDGE_CURVE('',#29,#30,#49,.T.);
#51 = AXIS2_PLACEMENT_3D('',#22,#11,#36);
#52 = LINE('',#51,#9);
#53 = EDGE_CURVE('',#30,#31,#52,.T.);
#54 = AXIS2_PLACEMENT_3D('',#23,#40,#36);
#55 = LINE('',#54,#9);
#56 = EDGE_CURVE('',#31,#32,#55,.T.);
#57 = AXIS2_PLACEMENT_3D('',#24,#44,#9);
#58 = LINE('',#57,#9);
#59 = EDGE_CURVE('',#32,#29,#58,.T.);
#60 = AXIS2_PLACEMENT_3D('',#17,#9,#11);
#61 = LINE('',#60,#9);
#62 = EDGE_CURVE('',#25,#29,#61,.T.);
#63 = AXIS2_PLACEMENT_3D('',#18,#9,#11);
#64 = LINE('',#63,#9);
#65 = EDGE_CURVE('',#26,#30,#64,.T.);
#66 = AXIS2_PLACEMENT_3D('',#19,#9,#11);
#67 = LINE('',#66,#9);
#68 = EDGE_CURVE('',#27,#31,#67,.T.);
#69 = AXIS2_PLACEMENT_3D('',#20,#9,#11);
#70 = LINE('',#69,#9);
#71 = EDGE_CURVE('',#28,#32,#70,.T.);
#72 = ORIENTED_EDGE('',*,*,#65,.F.);
#73 = ORIENTED_EDGE('',*,*,#39,.T.);
#74 = ORIENTED_EDGE('',*,*,#68,.T.);
#75 = ORIENTED_EDGE('',*,*,#53,.F.);
#76 = EDGE_LOOP('',(#72,#73,#74,#75));
#77 = FACE_BOUND('',#76,.T.);
#78 = CARTESIAN_POINT('',(0.59,0.0,0.1));
#79 = AXIS2_PLACEMENT_3D('',#78,#10,#11);
#80 = PLANE('',#79);
#81 = ADVANCED_FACE('',(#77),#80,.T.);
#82 = ORIENTED_EDGE('',*,*,#47,.T.);
#83 = ORIENTED_EDGE('',*,*,#62,.T.);
#84 = ORIENTED_EDGE('',*,*,#59,.F.);
#85 = ORIENTED_EDGE('',*,*,#71,.F.);
#86 = EDGE_LOOP('',(#82,#83,#84,#85));
#87 = FACE_BOUND('',#86,.T.);
#88 = CARTESIAN_POINT('',(0.0,0.52,0.0));
#89 = AXIS2_PLACEMENT_3D('',#88,#40,#11);
#90 = PLANE('',#89);
#91 = ADVANCED_FACE('',(#87),#90,.T.);
#92 = ORIENTED_EDGE('',*,*,#43,.T.);
#93 = ORIENTED_EDGE('',*,*,#71,.T.);
#94 = ORIENTED_EDGE('',*,*,#56,.F.);
#95 = ORIENTED_EDGE('',*,*,#68,.F.);
#96 = EDGE_LOOP('',(#92,#93,#94,#95));
#97 = FACE_BOUND('',#96,.T.);
#98 = CARTESIAN_POINT('',(0.59,0.52,0.0));
#99 = AXIS2_PLACEMENT_3D('',#98,#11,#10);
#100 = PLANE('',#99);
#101 = ADVANCED_FACE('',(#97),#100,.T.);
#102 = ORIENTED_EDGE('',*,*,#62,.F.);
#103 = ORIENTED_EDGE('',*,*,#35,.T.);
#104 = ORIENTED_EDGE('',*,*,#65,.T.);
#105 = ORIENTED_EDGE('',*,*,#50,.F.);
#106 = EDGE_LOOP('',(#102,#103,#104,#105));
#107 = FACE_BOUND('',#106,.T.);
#108 = CARTESIAN_POINT('',(0.0,0.0,0.1));
#109 = AXIS2_PLACEMENT_3D('',#108,#44,#10);
#110 = PLANE('',#109);
#111 = ADVANCED_FACE('',(#107),#110,.T.);
#112 = ORIENTED_EDGE('',*,*,#56,.T.);
#113 = ORIENTED_EDGE('',*,*,#59,.T.);
#114 = ORIENTED_EDGE('',*,*,#50,.T.);
#115 = ORIENTED_EDGE('',*,*,#53,.T.);
#116 = EDGE_LOOP('',(#112,#113,#114,#115));
#117 = FACE_BOUND('',#116,.T.);
#118 = CARTESIAN_POINT('',(0.59,0.52,0.1));
#119 = AXIS2_PLACEMENT_3D('',#118,#9,#10);
#120 = PLANE('',#119);
#121 = ADVANCED_FACE('',(#117),#120,.T.);
#122 = ORIENTED_EDGE('',*,*,#35,.F.);
#123 = ORIENTED_EDGE('',*,*,#47,.F.);
#124 = ORIENTED_EDGE('',*,*,#43,.F.);
#125 = ORIENTED_EDGE('',*,*,#39,.F.);
#126 = EDGE_LOOP('',(#122,#123,#124,#125));
#127 = FACE_BOUND('',#126,.T.);
#128 = CARTESIAN_POINT('',(0.59,0.0,0.0));
#129 = AXIS2_PLACEMENT_3D('',#128,#36,#10);
#130 = PLANE('',#129);
#131 = ADVANCED_FACE('',(#127),#130,.T.);
#132 = CLOSED_SHELL('',(#81,#91,#101,#111,#121,#131));
#133 = MANIFOLD_SOLID_BREP('',#132);
#134 = CARTESIAN_POINT('',(0.15,0.0,0.1));
#135 = CARTESIAN_POINT('',(0.27,0.0,0.1));
#136 = CARTESIAN_POINT('',(0.27,0.52,0.1));
#137 = CARTESIAN_POINT('',(0.15,0.52,0.1));
#138 = CARTESIAN_POINT('',(0.15,0.0,0.52));
#139 = CARTESIAN_POINT('',(0.27,0.0,0.52));
#140 = CARTESIAN_POINT('',(0.27,0.52,0.52));
#141 = CARTESIAN_POINT('',(0.15,0.52,0.52));
#142 = VERTEX_POINT('',#134);
#143 = VERTEX_POINT('',#135);
#144 = VERTEX_POINT('',#136);
#145 = VERTEX_POINT('',#137);
#146 = VERTEX_POINT('',#138);
#147 = VERTEX_POINT('',#139);
#148 = VERTEX_POINT('',#140);
#149 = VERTEX_POINT('',#141);
#150 = AXIS2_PLACEMENT_3D('',#134,#10,#9);
#151 = LINE('',#150,#9);
#152 = EDGE_CURVE('',#142,#143,#151,.T.);
#153 = AXIS2_PLACEMENT_3D('',#135,#11,#36);
#154 = LINE('',#153,#9);
#155 = EDGE_CURVE('',#143,#144,#154,.T.);
#156 = AXIS2_PLACEMENT_3D('',#136,#40,#36);
#157 = LINE('',#156,#9);
#158 = EDGE_CURVE('',#144,#145,#157,.T.);
#159 = AXIS2_PLACEMENT_3D('',#137,#44,#9);
#160 = LINE('',#159,#9);
#161 = EDGE_CURVE('',#145,#142,#160,.T.);
#162 = AXIS2_PLACEMENT_3D('',#138,#10,#9);
#163 = LINE('',#162,#9);
#164 = EDGE_CURVE('',#146,#147,#163,.T.);
#165 = AXIS2_PLACEMENT_3D('',#139,#11,#36);
#166 = LINE('',#165,#9);
#167 = EDGE_CURVE('',#147,#148,#166,.T.);
#168 = AXIS2_PLACEMENT_3D('',#140,#40,#36);
#169 = LINE('',#168,#9);
#170 = EDGE_CURVE('',#148,#149,#169,.T.);
#171 = AXIS2_PLACEMENT_3D('',#141,#44,#9);
#172 = LINE('',#171,#9);
#173 = EDGE_CURVE('',#149,#146,#172,.T.);
#174 = AXIS2_PLACEMENT_3D('',#134,#9,#11);
#175 = LINE('',#174,#9);
#176 = EDGE_CURVE('',#142,#146,#175,.T.);
#177 = AXIS2_PLACEMENT_3D('',#135,#9,#11);
#178 = LINE('',#177,#9);
#179 = EDGE_CURVE('',#143,#147,#178,.T.);
#180 = AXIS2_PLACEMENT_3D('',#136,#9,#11);
#181 = LINE('',#180,#9);
#182 = EDGE_CURVE('',#144,#148,#181,.T.);
#183 = AXIS2_PLACEMENT_3D('',#137,#9,#11);
#184 = LINE('',#183,#9);
#185 = EDGE_CURVE('',#145,#149,#184,.T.);
#186 = ORIENTED_EDGE('',*,*,#179,.F.);
#187 = ORIENTED_EDGE('',*,*,#155,.T.);
#188 = ORIENTED_EDGE('',*,*,#182,.T.);
#189 = ORIENTED_EDGE('',*,*,#167,.F.);
#190 = EDGE_LOOP('',(#186,#187,#188,#189));
#191 = FACE_BOUND('',#190,.T.);
#192 = CARTESIAN_POINT('',(0.27,0.0,0.52));
#193 = AXIS2_PLACEMENT_3D('',#192,#10,#11);
#194 = PLANE('',#193);
#195 = ADVANCED_FACE('',(#191),#194,.T.);
#196 = ORIENTED_EDGE('',*,*,#161,.T.);
#197 = ORIENTED_EDGE('',*,*,#176,.T.);
#198 = ORIENTED_EDGE('',*,*,#173,.F.);
#199 = ORIENTED_EDGE('',*,*,#185,.F.);
#200 = EDGE_LOOP('',(#196,#197,#198,#199));
#201 = FACE_BOUND('',#200,.T.);
#202 = CARTESIAN_POINT('',(0.15,0.52,0.1));
#203 = AXIS2_PLACEMENT_3D('',#202,#40,#11);
#204 = PLANE('',#203);
#205 = ADVANCED_FACE('',(#201),#204,.T.);
#206 = ORIENTED_EDGE('',*,*,#158,.T.);
#207 = ORIENTED_EDGE('',*,*,#185,.T.);
#208 = ORIENTED_EDGE('',*,*,#170,.F.);
#209 = ORIENTED_EDGE('',*,*,#182,.F.);
#210 = EDGE_LOOP('',(#206,#207,#208,#209));
#211 = FACE_BOUND('',#210,.T.);
#212 = CARTESIAN_POINT('',(0.27,0.52,0.1));
#213 = AXIS2_PLACEMENT_3D('',#212,#11,#10);
#214 = PLANE('',#213);
#215 = ADVANCED_FACE('',(#211),#214,.T.);
#216 = ORIENTED_EDGE('',*,*,#164,.F.);
#217 = ORIENTED_EDGE('',*,*,#176,.F.);
#218 = ORIENTED_EDGE('',*,*,#152,.T.);
#219 = ORIENTED_EDGE('',*,*,#179,.T.);
#220 = EDGE_LOOP('',(#216,#217,#218,#219));
#221 = FACE_BOUND('',#220,.T.);
#222 = CARTESIAN_POINT('',(0.27,0.0,0.52));
#223 = AXIS2_PLACEMENT_3D('',#222,#44,#10);
#224 = PLANE('',#223);
#225 = ADVANCED_FACE('',(#221),#224,.T.);
#226 = ORIENTED_EDGE('',*,*,#170,.T.);
#227 = ORIENTED_EDGE('',*,*,#173,.T.);
#228 = ORIENTED_EDGE('',*,*,#164,.T.);
#229 = ORIENTED_EDGE('',*,*,#167,.T.);
#230 = EDGE_LOOP('',(#226,#227,#228,#229));
#231 = FACE_BOUND('',#230,.T.);
#232 = CARTESIAN_POINT('',(0.27,0.52,0.52));
#233 = AXIS2_PLACEMENT_3D('',#232,#9,#10);
#234 = PLANE('',#233);
#235 = ADVANCED_FACE('',(#231),#234,.T.);
#236 = ORIENTED_EDGE('',*,*,#152,.F.);
#237 = ORIENTED_EDGE('',*,*,#161,.F.);
#238 = ORIENTED_EDGE('',*,*,#158,.F.);
#239 = ORIENTED_EDGE('',*,*,#155,.F.);
#240 = EDGE_LOOP('',(#236,#237,#238,#239));
#241 = FACE_BOUND('',#240,.T.);
#242 = CARTESIAN_POINT('',(0.27,0.0,0.1));
#243 = AXIS2_PLACEMENT_3D('',#242,#36,#10);
#244 = PLANE('',#243);
#245 = ADVANCED_FACE('',(#241),#244,.T.);
#246 = CLOSED_SHELL('',(#195,#205,#215,#225,#235,#245));
#247 = MANIFOLD_SOLID_BREP('',#246);
#248 = SHAPE_REPRESENTATION('',(#133,#247),#16);
#249 = SHAPE_DEFINITION_REPRESENTATION(#7,#248);
ENDSEC;
END-ISO-10303-21;
